<?xml version="1.0" encoding="utf-8"?>
<?xml-stylesheet type="text/xsl" href="rss1.xsl"?>
<rss version="2.0" xmlns:atom="http://www.w3.org/2005/Atom" xmlns:content="http://purl.org/rss/1.0/modules/content/" xmlns:dc="http://purl.org/dc/elements/1.1/" xmlns:media="http://search.yahoo.com/mrss/">
<channel>
 <title>Getty</title>
 <link>http://www.gettyimg.com/</link>
 <atom:link href="http://www.gettyimg.com/" rel="self" type="application/rss+xml" />

 
                <item>
                <title><![CDATA[【HD Live Performances】HDTV - The Band Perry - Stagecoach 2015 1080i HDTV DD5.1 MPEG2]]></title>
                <link><![CDATA[https://sharemania.us/threads/the-band-perry-stagecoach-2015-1080i-hdtv-dd5-1-mpeg2.243390/]]></link>
                <description><![CDATA[<article>
<blockquote class="messageText SelectQuoteContainer ugc baseHtml">
<img src="https://i.ibb.co/xSHdhx7/Stagecoach-2015-The-Band-Perry-1080i-HDTV-DD5-1-MPEG2-No-GRP-ts.png" class="bbCodeImage LbImage" alt="[​IMG]" data-url="https://i.ibb.co/xSHdhx7/Stagecoach-2015-The-Band-Perry-1080i-HDTV-DD5-1-MPEG2-No-GRP-ts.png" style=""><br>
<div class="ToggleTriggerAnchor bbCodeSpoilerContainer">
<button type="button" class="button bbCodeSpoilerButton ToggleTrigger Tooltip JsOnly" data-target="> .SpoilerTarget"><span>Spoiler: <span class="SpoilerTitle">MediaInfo</span></span></button>
<div class="SpoilerTarget bbCodeSpoilerText">
<div class="bbCodeBlock bbCodeCode">
<div class="type">Code:</div>
<pre>General
Format                                   : MPEG-TS
File size                                : 6.67 GiB
Duration                                 : 59 min 0 s
Overall bit rate mode                    : Variable
Overall bit rate                         : 16.2 Mb/s
Frame rate                               : 29.970 FPS

Video
ID                                       : 6081 (0x17C1)
Menu ID                                  : 1 (0x1)
Format                                   : MPEG Video
Format version                           : Version 2
Format profile                           : Main@High
Format settings                          : CustomMatrix / BVOP
Format settings, BVOP                    : Yes
Format settings, Matrix                  : Custom
Format settings, GOP                     : Variable
Format settings, picture structure       : Frame
Codec ID                                 : 2
Duration                                 : 59 min 0 s
Bit rate mode                            : Variable
Bit rate                                 : 15.0 Mb/s
Maximum bit rate                         : 18.0 Mb/s
Width                                    : 1 920 pixels
Height                                   : 1 080 pixels
Display aspect ratio                     : 16:9
Frame rate                               : 29.970 (30000/1001) FPS
Color space                              : YUV
Chroma subsampling                       : 4:2:0
Bit depth                                : 8 bits
Scan type                                : Interlaced
Scan order                               : Top Field First
Compression mode                         : Lossy
Bits/(Pixel*Frame)                       : 0.241
Time code of first frame                 : 00:00:00;00
Time code source                         : Group of pictures header
Stream size                              : 6.18 GiB (93%)

Audio
ID                                       : 6082 (0x17C2)
Menu ID                                  : 1 (0x1)
Format                                   : AC-3
Format/Info                              : Audio Coding 3
Commercial name                          : Dolby Digital
Codec ID                                 : 129
Duration                                 : 59 min 0 s
Bit rate mode                            : Constant
Bit rate                                 : 384 kb/s
Channel(s)                               : 6 channels
Channel layout                           : L R C LFE Ls Rs
Sampling rate                            : 48.0 kHz
Frame rate                               : 31.250 FPS (1536 SPF)
Compression mode                         : Lossy
Delay relative to video                  : 10 ms
Stream size                              : 162 MiB (2%)
Language                                 : English
Service kind                             : Complete Main
Dialog Normalization                     : -25 dB
compr                                    : 4.54 dB
dynrng                                   : 5.16 dB
cmixlev                                  : -3.0 dB
surmixlev                                : -3 dB
dialnorm_Average                         : -25 dB
dialnorm_Minimum                         : -25 dB
dialnorm_Maximum                         : -25 dB

Text #1
ID                                       : 6081 (0x17C1)-CC1
Menu ID                                  : 1 (0x1)
Format                                   : EIA-608
Muxing mode                              : A/53 / DTVCC Transport
Muxing mode, more info                   : Muxed in Video #1
Duration                                 : 59 min 0 s
Bit rate mode                            : Constant
Stream size                              : 0.00 Byte (0%)
Type of the first event                  : RollUp

Text #2
ID                                       : 6081 (0x17C1)-1
Menu ID                                  : 1 (0x1)
Format                                   : EIA-708
Muxing mode                              : A/53 / DTVCC Transport
Muxing mode, more info                   : Muxed in Video #1
Duration                                 : 59 min 0 s
Bit rate mode                            : Constant
Stream size                              : 0.00 Byte (0%)
</pre>
</div></div>
</div>
<div class="bbCodeBlock bbCodeVfcHH HiddenContent">
<div class="attribution type">Hidden Content:</div>
<blockquote>You must reply before you can see the hidden data contained here.</blockquote>
</div>
<div class="messageTextEndMarker">&nbsp;</div>
</blockquote>
</article>]]></description>
                <author><![CDATA[itunesboy]]></author>
                </item>

                </channel></rss>